<svg width="92" height="37" viewBox="0 0 92 37" fill="none" xmlns="http://www.w3.org/2000/svg">
<path d="M89.5142 17.1313C89.5683 18.8802 88.7385 20.7821 86.7453 22.7654C84.749 24.7519 81.7221 26.671 77.7938 28.3674C69.9487 31.7552 58.9014 34.0863 46.5299 34.4692C34.1584 34.8521 22.9881 33.2084 14.9486 30.3122C10.9229 28.862 7.7831 27.1337 5.66774 25.2745C3.55577 23.4182 2.60993 21.5713 2.55581 19.8224C2.50169 18.0735 3.33152 16.1716 5.32466 14.1883C7.32101 12.2018 10.3479 10.2827 14.2762 8.58631C22.1213 5.19852 33.1685 2.86736 45.5401 2.48451C57.9116 2.10165 69.0819 3.74526 77.1214 6.64147C81.1471 8.09172 84.2869 9.81999 86.4023 11.6792C88.5142 13.5355 89.4601 15.3824 89.5142 17.1313Z" stroke="#080808" stroke-width="4"/>
</svg>
