<svg width="90" height="36" viewBox="0 0 90 36" fill="none" xmlns="http://www.w3.org/2000/svg">
<path d="M87.4484 16.6672C87.4964 18.2188 86.7691 19.9783 84.8628 21.8838C82.9521 23.7937 80.0245 25.6662 76.1787 27.3341C68.5011 30.6637 57.6525 32.9673 45.4754 33.3442C33.2984 33.721 22.3281 32.0926 14.4593 29.2441C10.5177 27.8172 7.47996 26.1293 5.45479 24.3412C3.43435 22.5573 2.59959 20.846 2.55157 19.2945C2.50356 17.7429 3.23091 15.9833 5.13717 14.0779C7.0479 12.168 9.97549 10.2954 13.8213 8.62754C21.4989 5.29792 32.3475 2.99433 44.5246 2.61749C56.7016 2.24066 67.6719 3.86903 75.5407 6.71755C79.4823 8.14443 82.52 9.83236 84.5452 11.6205C86.5656 13.4044 87.4004 15.1156 87.4484 16.6672Z" stroke="white" stroke-width="5"/>
</svg>
