<svg
    width="100%"
    height="100%"
    viewBox="0 0 16 16"
    version="1.1"
    xmlns="http://www.w3.org/2000/svg"
    style="
        fill-rule: evenodd;
        clip-rule: evenodd;
        stroke-linejoin: round;
        stroke-miterlimit: 2;
    "
>
    <rect id="empty" x="0" y="0" width="16" height="16" style="fill: none" />
    <path
        d="M9.248,2.831c1.037,-0.105 1.963,0.668 2.066,1.724l0.569,5.841c0.103,1.056 -0.656,1.999 -1.693,2.103l-5.736,0.58c-1.037,0.105 -1.963,-0.668 -2.066,-1.724l-0.569,-5.841c-0.103,-1.056 0.656,-1.999 1.693,-2.103l5.736,-0.58Z"
        style="fill: #ff0052"
    />
    <path
        d="M12.426,3.965c1.04,0.07 1.829,0.986 1.76,2.045l-0.38,5.857c-0.069,1.059 -0.969,1.862 -2.009,1.792l-5.752,-0.387c-1.04,-0.07 -1.829,-0.986 -1.76,-2.045l0.38,-5.857c0.069,-1.059 0.969,-1.862 2.009,-1.792l5.752,0.387Z"
        style="fill: #00d2ff"
    />
    <path
        d="M10.882,2.337c1.042,0 1.888,0.862 1.888,1.923l0,5.87c0,1.061 -0.846,1.923 -1.888,1.923l-5.765,0c-1.042,0 -1.888,-0.862 -1.888,-1.923l0,-5.87c0,-1.061 0.846,-1.923 1.888,-1.923l5.765,0Z"
        style="fill: #ffd400"
    />
    <path
        d="M4.356,11.889c-0.06,-0.209 -0.085,-0.432 -0.07,-0.662l0.38,-5.857c0.069,-1.059 0.969,-1.862 2.009,-1.792l5.752,0.387c0.113,0.008 0.223,0.025 0.329,0.052c0.01,0.08 0.015,0.161 0.015,0.243l0,5.87c0,1.061 -0.846,1.923 -1.888,1.923l-5.765,0c-0.271,0 -0.528,-0.058 -0.761,-0.163Z"
        style="fill: #fff"
    />
    <path
        d="M6.869,9.043c-0.114,-0.077 -0.144,-0.233 -0.067,-0.347c0.077,-0.114 0.233,-0.144 0.347,-0.067c0.575,0.39 1.151,0.361 1.726,-0.004c0.117,-0.074 0.271,-0.039 0.345,0.077c0.074,0.117 0.039,0.271 -0.077,0.345c-0.758,0.481 -1.516,0.51 -2.274,-0.004Zm2.121,-2.207c0.276,0 0.5,0.224 0.5,0.5c0,0.276 -0.224,0.5 -0.5,0.5c-0.276,0 -0.5,-0.224 -0.5,-0.5c0,-0.276 0.224,-0.5 0.5,-0.5Zm-1.981,0c0.276,0 0.5,0.224 0.5,0.5c0,0.276 -0.224,0.5 -0.5,0.5c-0.276,0 -0.5,-0.224 -0.5,-0.5c0,-0.276 0.224,-0.5 0.5,-0.5Z"
    />
</svg>
