<svg
    xmlns="http://www.w3.org/2000/svg"
    xml:space="preserve"
    fill-rule="evenodd"
    stroke-linejoin="round"
    stroke-miterlimit="2"
    clip-rule="evenodd"
    viewBox="0 0 32 32"
>
    <clipPath id="a">
        <path d="M0 0h32v32H0z" />
    </clipPath>
    <g clip-path="url(#a)">
        <path
            fill="#fcc010"
            d="m24.22 21.92.75 1.82.06.16.3 1.87-.38 1.83-1.05 1.6-.78.65-.86.47-3.15 1.32q-.27.12-.58.19l-1.42.17-1.48-.22-1.32-.63-1.1-1.01-.81-1.4.06.15-.78-1.86-1.04.33-1.3.04-1.2-.28-1.1-.56-.95-.8-.73-1.05-.43-1.17-.14-1.17V5.03l.23-1.48.62-1.31 1.01-1.11 1.4-.8L9.49 0l1.44.1 1.34.5 1.18.88 12.27 12.27.77 1 .49 1.1.21 1.14-.04 1.12-.38 1.32-.68 1.1-.96.91z"
        />
        <path
            fill-rule="nonzero"
            d="M17.1 28c-.4 0-.8-.25-.95-.66l-2.29-5.42-3.6 1.42c-.3.15-.7.1-1-.1a1 1 0 0 1-.47-.87V5.03c0-.4.26-.8.66-.96s.87-.05 1.17.25L22.89 16.6q.38.41.3.97a1 1 0 0 1-.6.76l-3.55 1.52 2.23 5.42c.2.56-.05 1.17-.56 1.37l-3.14 1.32c-.2.05-.3.05-.46.05m-2.63-8.52c.4 0 .81.26.97.66l2.23 5.43 1.16-.51-2.23-5.43c-.2-.55.05-1.16.56-1.36l3.1-1.32-9.34-9.33v13.23l3.15-1.27q.16-.09.4-.1"
        />
    </g>
</svg>
