<svg
    xmlns="http://www.w3.org/2000/svg"
    xml:space="preserve"
    fill-rule="evenodd"
    stroke-linejoin="round"
    stroke-miterlimit="2"
    clip-rule="evenodd"
    viewBox="0 0 32 32" overflow="visible"
>
    <g>
        <circle
            cx="16"
            cy="53"
            r="16"
            fill="var(--sticker)"
            transform="translate(0 -37)"
        />
        <path d="M16 4a12 12 0 1 1 0 24 12 12 0 0 1 0-24m0 2a10 10 0 1 0 0 20 10 10 0 0 0 0-20m5.9 5.5-3.2 6.8-.4.4-6.8 3.2a1 1 0 0 1-1.3-1.4l3.2-6.6.5-.5 6.6-3.2a1 1 0 0 1 1.4 1.3m-6 4.7L15 15l-2 3.8 4-1.8z" />
    </g>
</svg>
