<svg xmlns="http://www.w3.org/2000/svg" xml:space="preserve" fill-rule="evenodd" stroke-linejoin="round" stroke-miterlimit="2" clip-rule="evenodd" viewBox="0 0 32 32" overflow="visible">
  <path fill="var(--sticker)" d="M0 16a16 16 0 1 1 32.01.02A16 16 0 0 1 0 16"/>
  <path d="M4 16a12 12 0 1 1 24.01.01A12 12 0 0 1 4 16m21.95-1a10 10 0 0 0-1.29-4h-3.43q.61 1.92.74 4zm-2.81-6a10 10 0 0 0-4.16-2.55q.85 1.2 1.47 2.55zM13.02 6.45A10 10 0 0 0 8.86 9h2.69q.62-1.34 1.47-2.55M7.34 11a10 10 0 0 0-1.29 4h3.98q.13-2.08.74-4zm-1.29 6c.14 1.45.6 2.8 1.29 4h3.43a17 17 0 0 1-.74-4zm2.81 6a10 10 0 0 0 4.16 2.55q-.85-1.2-1.47-2.55zm10.12 2.55A10 10 0 0 0 23.14 23h-2.69q-.62 1.35-1.47 2.55M24.66 21a10 10 0 0 0 1.29-4h-3.98a17 17 0 0 1-.74 4zm-4.75-6q-.16-2.1-.85-4h-6.12q-.7 1.9-.85 4zm-1.75-6q-.89-1.64-2.15-3H16q-1.26 1.36-2.15 3zm-6.07 8q.15 2.1.85 4h6.12q.7-1.9.85-4zm1.75 6q.89 1.64 2.15 3H16q1.26-1.36 2.15-3z"/>
</svg>
