<svg
    xmlns="http://www.w3.org/2000/svg"
    xml:space="preserve"
    fill-rule="evenodd"
    stroke-linejoin="round"
    stroke-miterlimit="2"
    clip-rule="evenodd"
    viewBox="0 0 32 32"
>
    <clipPath id="a">
        <path d="M0 0h32v32H0z" />
    </clipPath>
    <g clip-path="url(#a)">
        <path
            fill="var(--sticker)"
            d="m27.6 27.4-.3.7-.3.5-.4.6-.4.5-.5.5-.5.4-.6.4-.5.3-.7.3-.6.2-.8.1h-.6l-.4.1H10l-.8-.2-.6-.2-.7-.3-.5-.3-.6-.4-.5-.4-.5-.5-.4-.5-.4-.6-.3-.5-.3-.7-.3-.1-.6-.3-.6-.5-.5-.4-.5-.5-.4-.5-.5-.6-.3-.6-.3-.7-.2-.6-.1-.8V21l-.1-.4V6.2l.2-.8.2-.6.3-.7.3-.6.5-.6.4-.5.5-.5.5-.4.6-.5.6-.3.7-.3.6-.2.8-.1H7l.4-.1h18.5l.8.2.6.2.7.3.6.3.6.5.5.4.5.5.4.5.5.6.3.6.3.7.2.6.1.8V7l.1.4v14.5l-.2.8-.2.6-.3.7-.3.6-.5.6-.4.5-.5.5-.5.4-.6.5-.6.3z"
        />
        <path d="M8.2 24H6.6l-.6-.3-.5-.3L5 23l-.4-.5-.3-.5-.2-.6-.1-.7V6.6l.3-.6.3-.5L5 5l.5-.4.5-.3.6-.2.7-.1h18.1l.6.3.5.3.5.4.4.5.3.5.2.6.1.7v14.1l-.3.6-.3.5-.4.5-.5.4-.5.3-.6.2-.7.1h-.9l.1.4.1.6v.6l-.2.6-.3.5-.4.4-.4.4-.5.3-.6.1-.6.1H10.4l-.6-.2-.5-.3L9 27l-.4-.4-.3-.5-.1-.6L8 25v-.6zm-1-2h17.5q1.2-.1 1.3-1.3V20H6v.7Q6.1 22 7.3 22m3.8 2a1 1 0 1 0 0 2h10a1 1 0 0 0 0-2zm15-6V7.3Q25.9 6 24.7 6H7.3Q6 6.1 6 7.3V18z" />
    </g>
</svg>
