<svg
    xmlns="http://www.w3.org/2000/svg"
    xml:space="preserve"
    fill-rule="evenodd"
    stroke-linejoin="round"
    stroke-miterlimit="2"
    clip-rule="evenodd"
    viewBox="0 0 32 32"
>
    <path
        fill="var(--sticker)"
        stroke="var(--sticker)"
        stroke-width="8.64"
        d="m20 26.13-.13-.02-.54-.16-.52-.27-.46-.37L5.54 12.49l-.38-.46-.27-.51-.16-.55-.05-.56.05-.56.16-.54.27-.51.38-.46 2.8-2.8.46-.38.51-.27.54-.16.56-.05.56.05.55.16.51.27.46.38 12.82 12.81.37.46.27.52.16.54.02.13.08.28 1.06 4.6a2 2 0 0 1-2.4 2.4l-4.6-1.07zm3.17-7.08-8.63-8.64-.17.33-.38.46-2.8 2.8-.45.37-.33.17 8.64 8.63q.1-.17.26-.32l3.54-3.54q.15-.15.32-.26Zm-2.44 5.21 4.6 1.06-1.07-4.6zm-8.15-15.8-1.5-1.5a.94.94 0 0 0-1.33 0l-2.8 2.79a.94.94 0 0 0 0 1.33l1.5 1.5c.37.36.97.36 1.33 0l2.8-2.8a.94.94 0 0 0 0-1.33Z"
    />
    <path d="m20 26.13-.13-.02-.54-.16-.52-.27-.46-.37L5.54 12.49l-.38-.46-.27-.51-.16-.55-.05-.56.05-.56.16-.54.27-.51.38-.46 2.8-2.8.46-.38.51-.27.54-.16.56-.05.56.05.55.16.51.27.46.38 12.82 12.81.37.46.27.52.16.54.02.13.08.28 1.06 4.6a2 2 0 0 1-2.4 2.4l-4.6-1.07zm3.17-7.08L13.54 9.4l-.17.33-.38.46-2.8 2.8-.45.37-.33.17 9.64 9.63c.07-.11 4-4.05 4.12-4.12m-2.44 5.21 4.6 1.06-1.07-4.6zm-9.15-16.8-.5-.5a.94.94 0 0 0-1.33 0l-2.8 2.79a.94.94 0 0 0 0 1.33l.5.5c.37.36.97.36 1.33 0l2.8-2.8a.94.94 0 0 0 0-1.33" />
</svg>
