<svg viewBox="0 0 512 512"
    xmlns="http://www.w3.org/2000/svg">
    <style>
        .rect {
            fill: #eeeeee;
        }
        @media (prefers-color-scheme: dark) {
            .rect {
                fill: black;
            }
        }
    </style>

<rect width="512" height="512" class="rect"/>
<rect x="181.158" y="78" width="18.7368" height="18.7368" fill="#FFB628"/>
<rect x="199.895" y="78" width="18.7368" height="18.7368" fill="#FFB628"/>
<rect x="218.632" y="78" width="18.7368" height="18.7368" fill="#FFB628"/>
<rect x="331.053" y="78" width="18.7368" height="18.7368" fill="#FFB628"/>
<rect x="349.79" y="78" width="18.7368" height="18.7368" fill="#FFB628"/>
<rect x="368.526" y="78" width="18.7368" height="18.7368" fill="#FFB628"/>
<rect x="387.263" y="78" width="18.7368" height="18.7368" fill="#FFB628"/>
<rect x="181.158" y="96.7368" width="18.7368" height="18.7368" fill="#FFB628"/>
<rect x="199.895" y="96.7368" width="18.7368" height="18.7368" fill="#FFB628"/>
<rect x="218.632" y="96.7368" width="18.7368" height="18.7368" fill="#FFB628"/>
<rect x="237.368" y="96.7368" width="18.7368" height="18.7368" fill="#FFB628"/>
<rect x="312.316" y="96.7368" width="18.7368" height="18.7368" fill="#FFB628"/>
<rect x="331.053" y="96.7368" width="18.7368" height="18.7368" fill="#FFB628"/>
<rect x="349.79" y="96.7368" width="18.7368" height="18.7368" fill="#FFB628"/>
<rect x="368.526" y="96.7368" width="18.7368" height="18.7368" fill="#FFB628"/>
<rect x="387.263" y="96.7368" width="18.7368" height="18.7368" fill="#FFB628"/>
<rect x="181.158" y="115.474" width="18.7368" height="18.7368" fill="#FFB628"/>
<rect x="199.895" y="115.474" width="18.7368" height="18.7368" fill="#FFB628"/>
<rect x="218.632" y="115.474" width="18.7368" height="18.7368" fill="#FFB628"/>
<rect x="237.368" y="115.474" width="18.7368" height="18.7368" fill="#FFB628"/>
<rect x="293.579" y="115.474" width="18.7368" height="18.7368" fill="#FFB628"/>
<rect x="312.316" y="115.474" width="18.7368" height="18.7368" fill="#FFB628"/>
<rect x="331.053" y="115.474" width="18.7368" height="18.7368" fill="#FFB628"/>
<rect x="349.79" y="115.474" width="18.7368" height="18.7368" fill="#FFB628"/>
<rect x="368.526" y="115.474" width="18.7368" height="18.7368" fill="#FFB628"/>
<rect x="387.263" y="115.474" width="18.7368" height="18.7368" fill="#FFB628"/>
<rect x="199.895" y="134.211" width="18.7368" height="18.7368" fill="#FFB628"/>
<rect x="218.632" y="134.211" width="18.7368" height="18.7368" fill="#FFB628"/>
<rect x="237.368" y="134.211" width="18.7368" height="18.7368" fill="#FFB628"/>
<rect x="256.105" y="134.211" width="18.7368" height="18.7368" fill="#FFB628"/>
<rect x="274.842" y="134.211" width="18.7368" height="18.7368" fill="#FFB628"/>
<rect x="293.579" y="134.211" width="18.7368" height="18.7368" fill="#FFB628"/>
<rect x="312.316" y="134.211" width="18.7368" height="18.7368" fill="#FFB628"/>
<rect x="331.053" y="134.211" width="18.7368" height="18.7368" fill="#FFB628"/>
<rect x="349.79" y="134.211" width="18.7368" height="18.7368" fill="#FFB628"/>
<rect x="368.526" y="134.211" width="18.7368" height="18.7368" fill="#FFB628"/>
<rect x="199.895" y="152.947" width="18.7368" height="18.7368" fill="#FFB628"/>
<rect x="218.632" y="152.947" width="18.7368" height="18.7368" fill="#FFB628"/>
<rect x="237.368" y="152.947" width="18.7368" height="18.7368" fill="#FFB628"/>
<rect x="256.105" y="152.947" width="18.7368" height="18.7368" fill="#FFB628"/>
<rect x="274.842" y="152.947" width="18.7368" height="18.7368" fill="#FFB628"/>
<rect x="293.579" y="152.947" width="18.7368" height="18.7368" fill="#FFB628"/>
<rect x="312.316" y="152.947" width="18.7368" height="18.7368" fill="#FFB628"/>
<rect x="331.053" y="152.947" width="18.7368" height="18.7368" fill="#FFB628"/>
<rect x="349.79" y="152.947" width="18.7368" height="18.7368" fill="#FFB628"/>
<rect x="368.526" y="152.947" width="18.7368" height="18.7368" fill="#FFB628"/>
<rect x="199.895" y="171.684" width="18.7368" height="18.7368" fill="#FFB628"/>
<rect x="218.632" y="171.684" width="18.7368" height="18.7368" fill="#FFB628"/>
<rect x="237.368" y="171.684" width="18.7368" height="18.7368" fill="#FFB628"/>
<rect x="256.105" y="171.684" width="18.7368" height="18.7368" fill="#FFB628"/>
<rect x="274.842" y="171.684" width="18.7368" height="18.7368" fill="#FFB628"/>
<rect x="293.579" y="171.684" width="18.7368" height="18.7368" fill="#FFB628"/>
<rect x="312.316" y="171.684" width="18.7368" height="18.7368" fill="#FFB628"/>
<rect x="331.053" y="171.684" width="18.7368" height="18.7368" fill="#FFB628"/>
<rect x="349.79" y="171.684" width="18.7368" height="18.7368" fill="#FFB628"/>
<rect x="68.7368" y="190.421" width="18.7368" height="18.7368" fill="#FFB628"/>
<rect x="87.4736" y="190.421" width="18.7368" height="18.7368" fill="#FFB628"/>
<rect x="106.21" y="190.421" width="18.7368" height="18.7368" fill="#FFB628"/>
<rect x="124.947" y="190.421" width="18.7368" height="18.7368" fill="#FFB628"/>
<rect x="143.684" y="190.421" width="18.7368" height="18.7368" fill="#FFB628"/>
<rect x="162.421" y="190.421" width="18.7368" height="18.7368" fill="#FFB628"/>
<rect x="181.158" y="190.421" width="18.7368" height="18.7368" fill="#FFB528"/>
<rect x="199.895" y="190.421" width="18.7368" height="18.7368" fill="#FFB628"/>
<rect x="218.632" y="190.421" width="18.7368" height="18.7368" fill="#FFB628"/>
<rect x="237.368" y="190.421" width="18.7368" height="18.7368" fill="#FFB628"/>
<rect x="256.105" y="190.421" width="18.7368" height="18.7368" fill="#FFB628"/>
<rect x="274.842" y="190.421" width="18.7368" height="18.7368" fill="#FFB628"/>
<rect x="293.579" y="190.421" width="18.7368" height="18.7368" fill="#FFB628"/>
<rect x="312.316" y="190.421" width="18.7368" height="18.7368" fill="#FFB628"/>
<rect x="331.053" y="190.421" width="18.7368" height="18.7368" fill="#FFB628"/>
<rect x="68.7368" y="209.158" width="18.7368" height="18.7368" fill="#FFB628"/>
<rect x="87.4736" y="209.158" width="18.7368" height="18.7368" fill="#FFB628"/>
<rect x="106.21" y="209.158" width="18.7368" height="18.7368" fill="#FFB628"/>
<rect x="124.947" y="209.158" width="18.7368" height="18.7368" fill="#FFB628"/>
<rect x="143.684" y="209.158" width="18.7368" height="18.7368" fill="#FFB628"/>
<rect x="162.421" y="209.158" width="18.7368" height="18.7368" fill="#FFB628"/>
<rect x="181.158" y="209.158" width="18.7368" height="18.7368" fill="#FFB628"/>
<rect x="199.895" y="209.158" width="18.7368" height="18.7368" fill="#FFB628"/>
<rect x="218.632" y="209.158" width="18.7368" height="18.7368" fill="#FFB628"/>
<rect x="237.368" y="209.158" width="18.7368" height="18.7368" fill="#FFB628"/>
<rect x="256.105" y="209.158" width="18.7368" height="18.7368" fill="#FFB628"/>
<rect x="274.842" y="209.158" width="18.7368" height="18.7368" fill="#FFB628"/>
<rect x="293.579" y="209.158" width="18.7368" height="18.7368" fill="#FFB628"/>
<rect x="312.316" y="209.158" width="18.7368" height="18.7368" fill="#FFB628"/>
<rect x="331.053" y="209.158" width="18.7368" height="18.7368" fill="#FFB628"/>
<rect x="50" y="227.895" width="18.7368" height="18.7368" fill="#FFB629"/>
<rect x="68.7368" y="227.895" width="18.7368" height="18.7368" fill="#FFB628"/>
<rect x="87.4736" y="227.895" width="18.7368" height="18.7368" fill="#FFB628"/>
<rect x="106.21" y="227.895" width="18.7368" height="18.7368" fill="#FFB628"/>
<rect x="124.947" y="227.895" width="18.7368" height="18.7368" fill="#FFB628"/>
<rect x="143.684" y="227.895" width="18.7368" height="18.7368" fill="#FFB628"/>
<rect x="162.421" y="227.895" width="18.7368" height="18.7368" fill="#FFB628"/>
<rect x="181.158" y="227.895" width="18.7368" height="18.7368" fill="#FFB628"/>
<rect x="199.895" y="227.895" width="18.7368" height="18.7368" fill="#FFB628"/>
<rect x="218.632" y="227.895" width="18.7368" height="18.7368" fill="#FFB628"/>
<rect x="237.368" y="227.895" width="18.7368" height="18.7368" fill="#FFB628"/>
<rect x="256.105" y="227.895" width="18.7368" height="18.7368" fill="#FFB628"/>
<rect x="274.842" y="227.895" width="18.7368" height="18.7368" fill="#FFB628"/>
<rect x="293.579" y="227.895" width="18.7368" height="18.7368" fill="#FFB628"/>
<rect x="312.316" y="227.895" width="18.7368" height="18.7368" fill="#FFB628"/>
<rect x="331.053" y="227.895" width="18.7368" height="18.7368" fill="#FFB628"/>
<rect x="349.79" y="227.895" width="18.7368" height="18.7368" fill="#FFB628"/>
<rect x="368.526" y="227.895" width="18.7368" height="18.7368" fill="#FFB628"/>
<rect x="387.263" y="227.895" width="18.7368" height="18.7368" fill="#FFB628"/>
<rect x="406" y="227.895" width="18.7368" height="18.7368" fill="#FFB628"/>
<rect x="424.737" y="227.895" width="18.7368" height="18.7368" fill="#FFB628"/>
<rect x="68.7368" y="246.632" width="18.7368" height="18.7368" fill="#FFB628"/>
<rect x="87.4736" y="246.632" width="18.7368" height="18.7368" fill="#FFB628"/>
<rect x="106.21" y="246.632" width="18.7368" height="18.7368" fill="#FFB628"/>
<rect x="124.947" y="246.632" width="18.7368" height="18.7368" fill="#FFB628"/>
<rect x="143.684" y="246.632" width="18.7368" height="18.7368" fill="#FFB628"/>
<rect x="162.421" y="246.632" width="18.7368" height="18.7368" fill="#FFB628"/>
<rect x="181.158" y="246.632" width="18.7368" height="18.7368" fill="#FFB628"/>
<rect x="199.895" y="246.632" width="18.7368" height="18.7368" fill="#FFB628"/>
<rect x="218.632" y="246.632" width="18.7368" height="18.7368" fill="#FFB628"/>
<rect x="237.368" y="246.632" width="18.7368" height="18.7368" fill="#FFB628"/>
<rect x="256.105" y="246.632" width="18.7368" height="18.7368" fill="#FFB628"/>
<rect x="274.842" y="246.632" width="18.7368" height="18.7368" fill="#FFB628"/>
<rect x="293.579" y="246.632" width="18.7368" height="18.7368" fill="#FFB628"/>
<rect x="312.316" y="246.632" width="18.7368" height="18.7368" fill="#FFB628"/>
<rect x="331.053" y="246.632" width="18.7368" height="18.7368" fill="#FFB628"/>
<rect x="349.79" y="246.632" width="18.7368" height="18.7368" fill="#FFB628"/>
<rect x="368.526" y="246.632" width="18.7368" height="18.7368" fill="#FFB628"/>
<rect x="387.263" y="246.632" width="18.7368" height="18.7368" fill="#FFB628"/>
<rect x="406" y="246.632" width="18.7368" height="18.7368" fill="#FFB628"/>
<rect x="424.737" y="246.632" width="18.7368" height="18.7368" fill="#FFB628"/>
<rect x="443.474" y="246.632" width="18.7368" height="18.7368" fill="#FFB628"/>
<rect x="106.21" y="265.368" width="18.7368" height="18.7368" fill="#FFB628"/>
<rect x="124.947" y="265.368" width="18.7368" height="18.7368" fill="#FFB628"/>
<rect x="143.684" y="265.368" width="18.7368" height="18.7368" fill="#FFB628"/>
<rect x="162.421" y="265.368" width="18.7368" height="18.7368" fill="#FFB628"/>
<rect x="181.158" y="265.368" width="18.7368" height="18.7368" fill="#FFB628"/>
<rect x="199.895" y="265.368" width="18.7368" height="18.7368" fill="#FFB628"/>
<rect x="218.632" y="265.368" width="18.7368" height="18.7368" fill="#FFB628"/>
<rect x="237.368" y="265.368" width="18.7368" height="18.7368" fill="#FFB628"/>
<rect x="256.105" y="265.368" width="18.7368" height="18.7368" fill="#FFB628"/>
<rect x="274.842" y="265.368" width="18.7368" height="18.7368" fill="#FFB628"/>
<rect x="293.579" y="265.368" width="18.7368" height="18.7368" fill="#FFB628"/>
<rect x="312.316" y="265.368" width="18.7368" height="18.7368" fill="#FFB628"/>
<rect x="331.053" y="265.368" width="18.7368" height="18.7368" fill="#FFB628"/>
<rect x="349.79" y="265.368" width="18.7368" height="18.7368" fill="#FFB628"/>
<rect x="368.526" y="265.368" width="18.7368" height="18.7368" fill="#FFB628"/>
<rect x="387.263" y="265.368" width="18.7368" height="18.7368" fill="#FFB628"/>
<rect x="406" y="265.368" width="18.7368" height="18.7368" fill="#FFB628"/>
<rect x="424.737" y="265.368" width="18.7368" height="18.7368" fill="#FFB628"/>
<rect x="443.474" y="265.368" width="18.7368" height="18.7368" fill="#FFB628"/>
<rect x="181.158" y="284.105" width="18.7368" height="18.7368" fill="#FFB628"/>
<rect x="199.895" y="284.105" width="18.7368" height="18.7368" fill="#FFB628"/>
<rect x="218.632" y="284.105" width="18.7368" height="18.7368" fill="#FFB628"/>
<rect x="237.368" y="284.105" width="18.7368" height="18.7368" fill="#FFB628"/>
<rect x="256.105" y="284.105" width="18.7368" height="18.7368" fill="#FFB628"/>
<rect x="274.842" y="284.105" width="18.7368" height="18.7368" fill="#FFB628"/>
<rect x="293.579" y="284.105" width="18.7368" height="18.7368" fill="#FFB628"/>
<rect x="312.316" y="284.105" width="18.7368" height="18.7368" fill="#FFB628"/>
<rect x="331.053" y="284.105" width="18.7368" height="18.7368" fill="#FFB628"/>
<rect x="349.79" y="284.105" width="18.7368" height="18.7368" fill="#FFB628"/>
<rect x="368.526" y="284.105" width="18.7368" height="18.7368" fill="#FFB628"/>
<rect x="387.263" y="284.105" width="18.7368" height="18.7368" fill="#FFB628"/>
<rect x="406" y="284.105" width="18.7368" height="18.7368" fill="#FFB628"/>
<rect x="424.737" y="284.105" width="18.7368" height="18.7368" fill="#FFB628"/>
<rect x="443.474" y="284.105" width="18.7368" height="18.7368" fill="#FFB628"/>
<rect x="181.158" y="302.842" width="18.7368" height="18.7368" fill="#FFB628"/>
<rect x="199.895" y="302.842" width="18.7368" height="18.7368" fill="#FFB628"/>
<rect x="218.632" y="302.842" width="18.7368" height="18.7368" fill="#FFB628"/>
<rect x="237.368" y="302.842" width="18.7368" height="18.7368" fill="#FFB628"/>
<rect x="256.105" y="302.842" width="18.7368" height="18.7368" fill="#FFB628"/>
<rect x="274.842" y="302.842" width="18.7368" height="18.7368" fill="#FFB628"/>
<rect x="293.579" y="302.842" width="18.7368" height="18.7368" fill="#FFB628"/>
<rect x="312.316" y="302.842" width="18.7368" height="18.7368" fill="#FFB628"/>
<rect x="387.263" y="302.842" width="18.7368" height="18.7368" fill="#FFB628"/>
<rect x="406" y="302.842" width="18.7368" height="18.7368" fill="#FFB628"/>
<rect x="424.737" y="302.842" width="18.7368" height="18.7368" fill="#FFB628"/>
<rect x="162.421" y="321.579" width="18.7368" height="18.7368" fill="#FFB628"/>
<rect x="181.158" y="321.579" width="18.7368" height="18.7368" fill="#FFB628"/>
<rect x="199.895" y="321.579" width="18.7368" height="18.7368" fill="#FFB628"/>
<rect x="218.632" y="321.579" width="18.7368" height="18.7368" fill="#FFB628"/>
<rect x="237.368" y="321.579" width="18.7368" height="18.7368" fill="#FFB628"/>
<rect x="256.105" y="321.579" width="18.7368" height="18.7368" fill="#FFB628"/>
<rect x="274.842" y="321.579" width="18.7368" height="18.7368" fill="#FFB628"/>
<rect x="293.579" y="321.579" width="18.7368" height="18.7368" fill="#FFB628"/>
<rect x="312.316" y="321.579" width="18.7368" height="18.7368" fill="#FFB628"/>
<rect x="143.684" y="340.316" width="18.7368" height="18.7368" fill="#FFB628"/>
<rect x="162.421" y="340.316" width="18.7368" height="18.7368" fill="#FFB628"/>
<rect x="181.158" y="340.316" width="18.7368" height="18.7368" fill="#FFB628"/>
<rect x="199.895" y="340.316" width="18.7368" height="18.7368" fill="#FFB628"/>
<rect x="218.632" y="340.316" width="18.7368" height="18.7368" fill="#FFB628"/>
<rect x="237.368" y="340.316" width="18.7368" height="18.7368" fill="#FFB628"/>
<rect x="256.105" y="340.316" width="18.7368" height="18.7368" fill="#FFB628"/>
<rect x="274.842" y="340.316" width="18.7368" height="18.7368" fill="#FFB628"/>
<rect x="293.579" y="340.316" width="18.7368" height="18.7368" fill="#FFB628"/>
<rect x="312.316" y="340.316" width="18.7368" height="18.7368" fill="#FFB628"/>
<rect x="124.947" y="359.053" width="18.7368" height="18.7368" fill="#FFB628"/>
<rect x="143.684" y="359.053" width="18.7368" height="18.7368" fill="#FFB628"/>
<rect x="162.421" y="359.053" width="18.7368" height="18.7368" fill="#FFB628"/>
<rect x="181.158" y="359.053" width="18.7368" height="18.7368" fill="#FFB628"/>
<rect x="199.895" y="359.053" width="18.7368" height="18.7368" fill="#FFB628"/>
<rect x="218.632" y="359.053" width="18.7368" height="18.7368" fill="#FFB628"/>
<rect x="256.105" y="359.053" width="18.7368" height="18.7368" fill="#FFB628"/>
<rect x="274.842" y="359.053" width="18.7368" height="18.7368" fill="#FFB628"/>
<rect x="293.579" y="359.053" width="18.7368" height="18.7368" fill="#FFB628"/>
<rect x="312.316" y="359.053" width="18.7368" height="18.7368" fill="#FFB628"/>
<rect x="124.947" y="377.789" width="18.7368" height="18.7368" fill="#FFB628"/>
<rect x="143.684" y="377.789" width="18.7368" height="18.7368" fill="#FFB628"/>
<rect x="162.421" y="377.789" width="18.7368" height="18.7368" fill="#FFB628"/>
<rect x="181.158" y="377.789" width="18.7368" height="18.7368" fill="#FFB628"/>
<rect x="199.895" y="377.789" width="18.7368" height="18.7368" fill="#FFB628"/>
<rect x="274.842" y="377.789" width="18.7368" height="18.7368" fill="#FFB628"/>
<rect x="293.579" y="377.789" width="18.7368" height="18.7368" fill="#FFB628"/>
<rect x="312.316" y="377.789" width="18.7368" height="18.7368" fill="#FFB628"/>
<rect x="331.053" y="377.789" width="18.7368" height="18.7368" fill="#FFB628"/>
<rect x="124.947" y="396.526" width="18.7368" height="18.7368" fill="#FFB628"/>
<rect x="143.684" y="396.526" width="18.7368" height="18.7368" fill="#FFB628"/>
<rect x="162.421" y="396.526" width="18.7368" height="18.7368" fill="#FFB628"/>
<rect x="181.158" y="396.526" width="18.7368" height="18.7368" fill="#FFB628"/>
<rect x="199.895" y="396.526" width="18.7368" height="18.7368" fill="#FFB628"/>
<rect x="293.579" y="396.526" width="18.7368" height="18.7368" fill="#FFB628"/>
<rect x="312.316" y="396.526" width="18.7368" height="18.7368" fill="#FFB628"/>
<rect x="331.053" y="396.526" width="18.7368" height="18.7368" fill="#FFB628"/>
<rect x="143.684" y="415.263" width="18.7368" height="18.7368" fill="#FFB628"/>
<rect x="162.421" y="415.263" width="18.7368" height="18.7368" fill="#FFB628"/>
<rect x="181.158" y="415.263" width="18.7368" height="18.7368" fill="#FFB628"/>
<rect x="293.579" y="415.263" width="18.7368" height="18.7368" fill="#FFB628"/>
<rect x="312.316" y="415.263" width="18.7368" height="18.7368" fill="#FFB628"/>
<rect x="331.053" y="415.263" width="18.7368" height="18.7368" fill="#FFB628"/>
</svg>
