<?xml version="1.0" encoding="UTF-8" standalone="no"?>
<svg width="100%" height="100%" viewBox="0 0 32 32" version="1.1" xmlns="http://www.w3.org/2000/svg"
     style="fill-rule:evenodd;clip-rule:evenodd;stroke-linejoin:round;stroke-miterlimit:2;">
    <g transform="matrix(1.36364,0,0,1.36364,-5.81818,-5.81818)">
        <rect x="5" y="10" width="1" height="1" style="stroke:black;stroke-width:0.04px;"/>
        <rect x="6" y="10" width="1" height="1" style="stroke:black;stroke-width:0.04px;"/>
        <rect x="7" y="10" width="1" height="1" style="stroke:black;stroke-width:0.04px;"/>
        <rect x="8" y="10" width="1" height="1" style="stroke:black;stroke-width:0.04px;"/>
        <rect x="9" y="10" width="1" height="1" style="stroke:black;stroke-width:0.04px;"/>
        <rect x="10" y="10" width="1" height="1" style="stroke:black;stroke-width:0.04px;"/>
        <rect x="11" y="10" width="1" height="1" style="stroke:black;stroke-width:0.04px;"/>
        <rect x="5" y="11" width="1" height="1" style="stroke:black;stroke-width:0.04px;"/>
        <rect x="6" y="11" width="1" height="1" style="stroke:black;stroke-width:0.04px;"/>
        <rect x="7" y="11" width="1" height="1" style="stroke:black;stroke-width:0.04px;"/>
        <rect x="8" y="11" width="1" height="1" style="stroke:black;stroke-width:0.04px;"/>
        <rect x="9" y="11" width="1" height="1" style="stroke:black;stroke-width:0.04px;"/>
        <rect x="10" y="11" width="1" height="1" style="stroke:black;stroke-width:0.04px;"/>
        <rect x="11" y="11" width="1" height="1" style="stroke:black;stroke-width:0.04px;"/>
        <rect x="6" y="12" width="1" height="1" style="stroke:black;stroke-width:0.04px;"/>
        <rect x="7" y="12" width="1" height="1" style="stroke:black;stroke-width:0.04px;"/>
        <rect x="8" y="12" width="1" height="1" style="stroke:black;stroke-width:0.04px;"/>
        <rect x="9" y="12" width="1" height="1" style="stroke:black;stroke-width:0.04px;"/>
        <rect x="10" y="12" width="1" height="1" style="stroke:black;stroke-width:0.04px;"/>
        <rect x="11" y="12" width="1" height="1" style="stroke:black;stroke-width:0.04px;"/>
        <rect x="12" y="12" width="1" height="1" style="stroke:black;stroke-width:0.04px;"/>
        <rect x="6" y="13" width="1" height="1" style="stroke:black;stroke-width:0.04px;"/>
        <rect x="7" y="13" width="1" height="1" style="stroke:black;stroke-width:0.04px;"/>
        <rect x="8" y="13" width="1" height="1" style="stroke:black;stroke-width:0.04px;"/>
        <rect x="9" y="13" width="1" height="1" style="stroke:black;stroke-width:0.04px;"/>
        <rect x="10" y="13" width="1" height="1" style="stroke:black;stroke-width:0.04px;"/>
        <rect x="11" y="13" width="1" height="1" style="stroke:black;stroke-width:0.04px;"/>
        <rect x="12" y="13" width="1" height="1" style="stroke:black;stroke-width:0.04px;"/>
        <rect x="7" y="14" width="1" height="1" style="stroke:black;stroke-width:0.04px;"/>
        <rect x="8" y="14" width="1" height="1" style="stroke:black;stroke-width:0.04px;"/>
        <rect x="9" y="14" width="1" height="1" style="stroke:black;stroke-width:0.04px;"/>
        <rect x="10" y="14" width="1" height="1" style="stroke:black;stroke-width:0.04px;"/>
        <rect x="11" y="14" width="1" height="1" style="stroke:black;stroke-width:0.04px;"/>
        <rect x="12" y="14" width="1" height="1" style="stroke:black;stroke-width:0.04px;"/>
        <rect x="13" y="14" width="1" height="1" style="stroke:black;stroke-width:0.04px;"/>
        <rect x="7" y="15" width="1" height="1" style="stroke:black;stroke-width:0.04px;"/>
        <rect x="8" y="15" width="1" height="1" style="stroke:black;stroke-width:0.04px;"/>
        <rect x="9" y="15" width="1" height="1" style="stroke:black;stroke-width:0.04px;"/>
        <rect x="10" y="15" width="1" height="1" style="stroke:black;stroke-width:0.04px;"/>
        <rect x="11" y="15" width="1" height="1" style="stroke:black;stroke-width:0.04px;"/>
        <rect x="12" y="15" width="1" height="1" style="stroke:black;stroke-width:0.04px;"/>
        <rect x="13" y="15" width="1" height="1" style="stroke:black;stroke-width:0.04px;"/>
        <rect x="8" y="16" width="1" height="1" style="stroke:black;stroke-width:0.04px;"/>
        <rect x="9" y="16" width="1" height="1" style="stroke:black;stroke-width:0.04px;"/>
        <rect x="10" y="16" width="1" height="1" style="stroke:black;stroke-width:0.04px;"/>
        <rect x="11" y="16" width="1" height="1" style="stroke:black;stroke-width:0.04px;"/>
        <rect x="12" y="16" width="1" height="1" style="stroke:black;stroke-width:0.04px;"/>
        <rect x="13" y="16" width="1" height="1" style="stroke:black;stroke-width:0.04px;"/>
        <rect x="14" y="16" width="1" height="1" style="stroke:black;stroke-width:0.04px;"/>
        <rect x="8" y="17" width="1" height="1" style="stroke:black;stroke-width:0.04px;"/>
        <rect x="9" y="17" width="1" height="1" style="stroke:black;stroke-width:0.04px;"/>
        <rect x="10" y="17" width="1" height="1" style="stroke:black;stroke-width:0.04px;"/>
        <rect x="11" y="17" width="1" height="1" style="stroke:black;stroke-width:0.04px;"/>
        <rect x="12" y="17" width="1" height="1" style="stroke:black;stroke-width:0.04px;"/>
        <rect x="13" y="17" width="1" height="1" style="stroke:black;stroke-width:0.04px;"/>
        <rect x="14" y="17" width="1" height="1" style="stroke:black;stroke-width:0.04px;"/>
        <rect x="22" y="17" width="1" height="1" style="stroke:black;stroke-width:0.04px;"/>
        <rect x="23" y="17" width="1" height="1" style="stroke:black;stroke-width:0.04px;"/>
        <rect x="9" y="18" width="1" height="1" style="stroke:black;stroke-width:0.04px;"/>
        <rect x="10" y="18" width="1" height="1" style="stroke:black;stroke-width:0.04px;"/>
        <rect x="11" y="18" width="1" height="1" style="stroke:black;stroke-width:0.04px;"/>
        <rect x="12" y="18" width="1" height="1" style="stroke:black;stroke-width:0.04px;"/>
        <rect x="13" y="18" width="1" height="1" style="stroke:black;stroke-width:0.04px;"/>
        <rect x="14" y="18" width="1" height="1" style="stroke:black;stroke-width:0.04px;"/>
        <rect x="15" y="18" width="1" height="1" style="stroke:black;stroke-width:0.04px;"/>
        <rect x="20" y="18" width="1" height="1" style="stroke:black;stroke-width:0.04px;"/>
        <rect x="21" y="18" width="1" height="1" style="stroke:black;stroke-width:0.04px;"/>
        <rect x="22" y="18" width="1" height="1" style="stroke:black;stroke-width:0.04px;"/>
        <rect x="23" y="18" width="1" height="1" style="stroke:black;stroke-width:0.04px;"/>
        <rect x="24" y="18" width="1" height="1" style="stroke:black;stroke-width:0.04px;"/>
        <rect x="9" y="19" width="1" height="1" style="stroke:black;stroke-width:0.04px;"/>
        <rect x="10" y="19" width="1" height="1" style="stroke:black;stroke-width:0.04px;"/>
        <rect x="11" y="19" width="1" height="1" style="stroke:black;stroke-width:0.04px;"/>
        <rect x="12" y="19" width="1" height="1" style="stroke:black;stroke-width:0.04px;"/>
        <rect x="13" y="19" width="1" height="1" style="stroke:black;stroke-width:0.04px;"/>
        <rect x="14" y="19" width="1" height="1" style="stroke:black;stroke-width:0.04px;"/>
        <rect x="15" y="19" width="1" height="1" style="stroke:black;stroke-width:0.04px;"/>
        <rect x="18" y="19" width="1" height="1" style="stroke:black;stroke-width:0.04px;"/>
        <rect x="19" y="19" width="1" height="1" style="stroke:black;stroke-width:0.04px;"/>
        <rect x="20" y="19" width="1" height="1" style="stroke:black;stroke-width:0.04px;"/>
        <rect x="21" y="19" width="1" height="1" style="stroke:black;stroke-width:0.04px;"/>
        <rect x="22" y="19" width="1" height="1" style="stroke:black;stroke-width:0.04px;"/>
        <rect x="23" y="19" width="1" height="1" style="stroke:black;stroke-width:0.04px;"/>
        <rect x="24" y="19" width="1" height="1" style="stroke:black;stroke-width:0.04px;"/>
        <rect x="25" y="19" width="1" height="1" style="stroke:black;stroke-width:0.04px;"/>
        <rect x="10" y="20" width="1" height="1" style="stroke:black;stroke-width:0.04px;"/>
        <rect x="11" y="20" width="1" height="1" style="stroke:black;stroke-width:0.04px;"/>
        <rect x="12" y="20" width="1" height="1" style="stroke:black;stroke-width:0.04px;"/>
        <rect x="13" y="20" width="1" height="1" style="stroke:black;stroke-width:0.04px;"/>
        <rect x="14" y="20" width="1" height="1" style="stroke:black;stroke-width:0.04px;"/>
        <rect x="15" y="20" width="1" height="1" style="stroke:black;stroke-width:0.04px;"/>
        <rect x="16" y="20" width="1" height="1" style="stroke:black;stroke-width:0.04px;"/>
        <rect x="17" y="20" width="1" height="1" style="stroke:black;stroke-width:0.04px;"/>
        <rect x="18" y="20" width="1" height="1" style="stroke:black;stroke-width:0.04px;"/>
        <rect x="19" y="20" width="1" height="1" style="stroke:black;stroke-width:0.04px;"/>
        <rect x="20" y="20" width="1" height="1" style="stroke:black;stroke-width:0.04px;"/>
        <rect x="21" y="20" width="1" height="1" style="stroke:black;stroke-width:0.04px;"/>
        <rect x="22" y="20" width="1" height="1" style="stroke:black;stroke-width:0.04px;"/>
        <rect x="23" y="20" width="1" height="1" style="stroke:black;stroke-width:0.04px;"/>
        <rect x="24" y="20" width="1" height="1" style="stroke:black;stroke-width:0.04px;"/>
        <rect x="25" y="20" width="1" height="1" style="stroke:black;stroke-width:0.04px;"/>
        <rect x="26" y="20" width="1" height="1" style="stroke:black;stroke-width:0.04px;"/>
        <rect x="10" y="21" width="1" height="1" style="stroke:black;stroke-width:0.04px;"/>
        <rect x="11" y="21" width="1" height="1" style="stroke:black;stroke-width:0.04px;"/>
        <rect x="12" y="21" width="1" height="1" style="stroke:black;stroke-width:0.04px;"/>
        <rect x="13" y="21" width="1" height="1" style="stroke:black;stroke-width:0.04px;"/>
        <rect x="14" y="21" width="1" height="1" style="stroke:black;stroke-width:0.04px;"/>
        <rect x="15" y="21" width="1" height="1" style="stroke:black;stroke-width:0.04px;"/>
        <rect x="16" y="21" width="1" height="1" style="stroke:black;stroke-width:0.04px;"/>
        <rect x="17" y="21" width="1" height="1" style="stroke:black;stroke-width:0.04px;"/>
        <rect x="18" y="21" width="1" height="1" style="stroke:black;stroke-width:0.04px;"/>
        <rect x="19" y="21" width="1" height="1" style="stroke:black;stroke-width:0.04px;"/>
        <rect x="20" y="21" width="1" height="1" style="stroke:black;stroke-width:0.04px;"/>
        <rect x="21" y="21" width="1" height="1" style="stroke:black;stroke-width:0.04px;"/>
        <rect x="22" y="21" width="1" height="1" style="stroke:black;stroke-width:0.04px;"/>
        <rect x="23" y="21" width="1" height="1" style="stroke:black;stroke-width:0.04px;"/>
        <rect x="24" y="21" width="1" height="1" style="stroke:black;stroke-width:0.04px;"/>
        <rect x="25" y="21" width="1" height="1" style="stroke:black;stroke-width:0.04px;"/>
        <rect x="26" y="21" width="1" height="1" style="stroke:black;stroke-width:0.04px;"/>
    </g>
</svg>
